# xmcd CD database file
#
# Track frame offsets:
#	150
#	31577
#	47512
#	61322
#	68332
#	86422
#	120312
#	143510
#	161742
#	189562
#	203665
#	233235
#	238115
#
# Disc length: 3383 seconds
#
# Revision: 0
# Processed by: cddbd v1.4PL0 Copyright (c) Steve Scherf et al.
# Submitted via: CDex 1.50
#
DISCID=9b0d350d
DTITLE=Sarah Vaughan - Live In Japan [CD2]
DYEAR=1900
DGENRE=Jazz
TTITLE0=The Nearness Of You
TTITLE1=I'll Remember April
TTITLE2=Watch What Happens
TTITLE3=I Cried For You
TTITLE4=Summertime
TTITLE5=The Blues
TTITLE6=I Remember You
TTITLE7=There Is No Greater Love
TTITLE8=Rainy Days And Mondays
TTITLE9=On A Clear Day (You Can See Forever)
TTITLE10=Bye Bye Blackbird
TTITLE11=Tonight
TTITLE12=Tenderly
EXTD=
EXTT0=
EXTT1=
EXTT2=
EXTT3=
EXTT4=
EXTT5=
EXTT6=
EXTT7=
EXTT8=
EXTT9=
EXTT10=
EXTT11=
EXTT12=
PLAYORDER=
